<svg width="113" height="120" viewBox="0 0 113 120" fill="none" xmlns="http://www.w3.org/2000/svg">
<path d="M54.1062 49.0763V58.2277C54.1062 59.4906 55.1312 60.5156 56.3941 60.5156H59.8991C60.5786 60.5156 67.9066 52.1923 67.9066 52.1923C68.8858 51.0164 70.7184 51.1148 71.5672 52.3868C71.5672 52.3868 79.2727 60.5133 78.2088 60.5133H83.8484C85.1113 60.5133 86.1363 59.4883 86.1363 58.2254V49.074C86.1363 47.8111 85.1113 46.7861 83.8484 46.7861H56.3941C55.1312 46.7884 54.1062 47.8134 54.1062 49.0763V49.0763Z" fill="#919CFF"/>
<path d="M105.424 0H7.3648C3.50314 0 0.360596 3.14255 0.360596 7.0042V84.0504V86.3851V95.724C0.360596 99.5857 3.50314 102.728 7.3648 102.728H47.0553V98.0588H7.3648C6.07602 98.0588 5.03006 97.0128 5.03006 95.724V92.9597C5.76317 93.2212 6.54063 93.3893 7.3648 93.3893H47.0553V88.7198H7.3648C6.07602 88.7198 5.03006 87.6739 5.03006 86.3851V84.0504V23.3473H107.758V77.0462V86.3851C107.758 87.6739 106.712 88.7198 105.424 88.7198H93.7499V93.3893H105.424C106.248 93.3893 107.025 93.2212 107.758 92.9597V95.724C107.758 97.0128 106.712 98.0588 105.424 98.0588H93.7499V102.728H105.424C109.285 102.728 112.428 99.5857 112.428 95.724V86.3851V77.0462V7.0042C112.428 3.14255 109.285 0 105.424 0ZM47.9471 4.66947L54.9513 18.6779H43.8287L36.8245 4.66947H47.9471ZM5.03006 7.0042C5.03006 5.71543 6.07602 4.66947 7.3648 4.66947H31.604L38.6082 18.6779H5.03006V7.0042ZM60.1718 18.6779L53.1676 4.66947H105.424C106.712 4.66947 107.758 5.71543 107.758 7.0042V18.6779H60.1718Z" fill="#2137FC"/>
<path d="M93.1075 77.1438L88.1245 69.6671H90.7121C93.2356 69.6671 95.2878 67.6148 95.2878 65.0913V42.2127C95.2878 39.6892 93.2356 37.637 90.7121 37.637H49.5306C47.0071 37.637 44.9548 39.6892 44.9548 42.2127V65.0913C44.9548 67.6148 47.0071 69.6671 49.5306 69.6671H52.1181L47.1352 77.1438C45.5222 79.5644 45.6114 82.7491 47.3571 85.069L52.0175 91.2851C51.9008 91.6877 51.8184 92.1041 51.8184 92.5457V97.1214C51.8184 99.6449 53.8706 101.697 56.3942 101.697V113.136C56.3942 116.921 59.4736 120 63.2578 120H76.9849C80.7691 120 83.8485 116.921 83.8485 113.136V101.697C86.372 101.697 88.4243 99.6449 88.4243 97.1214V92.5457C88.4243 92.1041 88.3419 91.6877 88.2252 91.2851L92.8833 85.0735C94.6312 82.7491 94.7205 79.5621 93.1075 77.1438L93.1075 77.1438ZM49.5306 65.0913V42.2127H90.7121V65.0913H85.0725L75.8364 51.236C74.5575 49.3211 72.4229 48.1771 70.1213 48.1771C67.8197 48.1771 65.6852 49.3211 64.4063 51.236L55.1701 65.0913H49.5306ZM72.4092 76.5306C72.4092 77.7935 71.3842 78.8185 70.1213 78.8185C68.8584 78.8185 67.8335 77.7935 67.8335 76.5306C67.8335 75.2677 68.8584 74.2428 70.1213 74.2428C71.3842 74.2428 72.4092 75.2677 72.4092 76.5306ZM79.2728 113.136C79.2728 114.399 78.2478 115.424 76.9849 115.424H63.2577C61.9948 115.424 60.9699 114.399 60.9699 113.136V101.697H79.2728V113.136ZM56.3942 97.1214V92.5457H83.8485L83.8531 97.1214H56.3942ZM89.2273 82.3235L84.8941 88.1027C84.5578 88.0226 84.21 87.97 83.8485 87.97H56.3942C56.0327 87.97 55.6849 88.0226 55.3486 88.1027L51.0131 82.3212C50.432 81.5502 50.4022 80.4886 50.9422 79.6833L67.8335 54.3452V70.0903C65.175 71.0375 63.2577 73.5541 63.2577 76.5329C63.2577 80.3171 66.3372 83.3965 70.1213 83.3965C73.9055 83.3965 76.9849 80.3171 76.9849 76.5329C76.9849 73.5541 75.0677 71.0375 72.4092 70.0903V54.3452L89.3005 79.681C89.8381 80.4864 89.8084 81.5479 89.2273 82.3235V82.3235Z" fill="#2137FC"/>
<path d="M15.2126 37.637H35.8034V42.2127H15.2126V37.637Z" fill="#2137FC"/>
<path d="M15.2126 46.7883H35.8034V51.3641H15.2126V46.7883Z" fill="#2137FC"/>
<path d="M15.2126 55.9399H35.8034V60.5157H15.2126V55.9399Z" fill="#2137FC"/>
<path d="M15.2126 65.0913H35.8034V69.667H15.2126V65.0913Z" fill="#2137FC"/>
</svg>
