<svg width="122" height="120" viewBox="0 0 122 120" fill="none" xmlns="http://www.w3.org/2000/svg">
<g clip-path="url(#clip0)">
<path d="M95.4513 11.9393C96.5119 11.9393 97.3717 11.0914 97.3717 10.0454C97.3717 8.99933 96.5119 8.15137 95.4513 8.15137C94.3906 8.15137 93.5308 8.99933 93.5308 10.0454C93.5308 11.0914 94.3906 11.9393 95.4513 11.9393Z" fill="#2137FC"/>
<path d="M87.7691 11.9393C88.8298 11.9393 89.6896 11.0914 89.6896 10.0454C89.6896 8.99933 88.8298 8.15137 87.7691 8.15137C86.7085 8.15137 85.8486 8.99933 85.8486 10.0454C85.8486 11.0914 86.7085 11.9393 87.7691 11.9393Z" fill="#2137FC"/>
<path d="M80.0868 11.9393C81.1475 11.9393 82.0073 11.0914 82.0073 10.0454C82.0073 8.99933 81.1475 8.15137 80.0868 8.15137C79.0262 8.15137 78.1664 8.99933 78.1664 10.0454C78.1664 11.0914 79.0262 11.9393 80.0868 11.9393Z" fill="#2137FC"/>
<path d="M119.939 55.393C118.954 55.393 118.156 56.1798 118.156 57.1508V112.562C118.156 114.203 116.802 115.538 115.138 115.538H67.1221C65.458 115.538 64.1038 114.203 64.1038 112.562V86.5136C64.1038 85.5425 63.3058 84.7557 62.3214 84.7557C61.337 84.7557 60.539 85.5425 60.539 86.5136V89.4948H6.62444C4.96014 89.4948 3.60622 88.1596 3.60622 86.5182V36.4019C3.60622 35.4308 2.80817 34.644 1.8238 34.644C0.839429 34.644 0.0413818 35.4308 0.0413818 36.4019V86.5182C0.0413818 90.0979 2.99449 93.0104 6.62444 93.0104H60.539V112.562C60.539 116.142 63.4921 119.054 67.1221 119.054H115.138C118.768 119.054 121.721 116.142 121.721 112.562V57.1511C121.721 56.18 120.923 55.393 119.939 55.393V55.393Z" fill="#2137FC"/>
<path d="M121.721 29.694C121.721 26.1139 118.767 23.2011 115.137 23.2011H106.837V7.43893C106.837 3.85885 103.883 0.946045 100.253 0.946045H6.62516C2.99497 0.946045 0.0413818 3.85862 0.0413818 7.43893V28.1963C0.0413818 29.1673 0.839429 29.9541 1.8238 29.9541C2.80817 29.9541 3.60622 29.1673 3.60622 28.1963V19.1403H103.272V23.2009H67.123C63.4928 23.2009 60.5392 26.1137 60.5392 29.6938L60.539 78.3082C60.539 79.2793 61.337 80.066 62.3214 80.066C63.3058 80.066 64.1038 79.2793 64.1038 78.3082V41.3966H118.156V48.9458C118.156 49.9168 118.954 50.7036 119.939 50.7036C120.923 50.7036 121.721 49.9168 121.721 48.9458V29.694ZM6.62516 4.46167H100.253C101.917 4.46167 103.272 5.79713 103.272 7.43893V15.6247H3.60622V7.43893C3.60622 5.79713 4.96062 4.46167 6.62516 4.46167V4.46167ZM64.1041 29.694C64.1041 28.0522 65.4585 26.7167 67.123 26.7167H115.137C116.802 26.7167 118.156 28.0522 118.156 29.694V37.88H64.1041V29.694Z" fill="#2137FC"/>
<path d="M110.336 34.1945C111.397 34.1945 112.256 33.3465 112.256 32.3005C112.256 31.2545 111.397 30.4065 110.336 30.4065C109.275 30.4065 108.416 31.2545 108.416 32.3005C108.416 33.3465 109.275 34.1945 110.336 34.1945Z" fill="#2137FC"/>
<path d="M102.654 34.1945C103.714 34.1945 104.574 33.3465 104.574 32.3005C104.574 31.2545 103.714 30.4065 102.654 30.4065C101.593 30.4065 100.733 31.2545 100.733 32.3005C100.733 33.3465 101.593 34.1945 102.654 34.1945Z" fill="#2137FC"/>
<path d="M94.9713 34.1945C96.032 34.1945 96.8918 33.3465 96.8918 32.3005C96.8918 31.2545 96.032 30.4065 94.9713 30.4065C93.9106 30.4065 93.0508 31.2545 93.0508 32.3005C93.0508 33.3465 93.9106 34.1945 94.9713 34.1945Z" fill="#2137FC"/>
<path d="M9.50605 55.1297H54.6394C55.6238 55.1297 56.4219 54.3429 56.4219 53.3719V24.9609C56.4219 23.9899 55.6238 23.2031 54.6394 23.2031H9.50605C8.52168 23.2031 7.72363 23.9899 7.72363 24.9609V53.3719C7.72363 54.3429 8.52168 55.1297 9.50605 55.1297V55.1297ZM52.857 50.1645L35.3858 39.1664L52.857 28.1684V50.1645ZM48.5341 51.6141H15.6114L32.0726 41.2519L48.5341 51.6141ZM32.0729 37.0812L15.6117 26.719H48.5343L32.0729 37.0812ZM28.7599 39.1664L11.2885 50.1645V28.1684L28.7599 39.1664Z" fill="#2137FC"/>
<path d="M7.72363 68.5242C7.72363 69.4952 8.52168 70.282 9.50605 70.282H54.6394C55.6238 70.282 56.4219 69.4952 56.4219 68.5242V60.948C56.4219 59.977 55.6238 59.1902 54.6394 59.1902H9.50605C8.52168 59.1902 7.72363 59.977 7.72363 60.948V68.5242ZM11.2885 62.7058H52.857V66.7664H11.2885V62.7058Z" fill="#2137FC"/>
<path d="M9.50605 85.4343H31.1125C32.0969 85.4343 32.8949 84.6475 32.8949 83.6765C32.8949 82.7055 32.0969 81.9187 31.1125 81.9187H9.50605C8.52168 81.9187 7.72363 82.7055 7.72363 83.6765C7.72363 84.6475 8.52168 85.4343 9.50605 85.4343Z" fill="#2137FC"/>
<path d="M9.50605 77.8584H40.7152C41.6996 77.8584 42.4976 77.0716 42.4976 76.1006C42.4976 75.1296 41.6996 74.3428 40.7152 74.3428H9.50605C8.52168 74.3428 7.72363 75.1296 7.72363 76.1006C7.72363 77.0716 8.52168 77.8584 9.50605 77.8584V77.8584Z" fill="#2137FC"/>
<path d="M70.004 77.3845H112.256C113.241 77.3845 114.039 76.5977 114.039 75.6267V47.2158C114.039 46.2448 113.241 45.458 112.256 45.458H70.004C69.0196 45.458 68.2216 46.2448 68.2216 47.2158V75.6267C68.2216 76.5977 69.0196 77.3845 70.004 77.3845ZM110.474 72.3009L94.2942 61.4215L110.474 50.5421V72.3009ZM106.478 73.8689H75.7821L91.13 63.5487L106.478 73.8689ZM91.1303 59.2941L75.7823 48.9739H106.478L91.1303 59.2941ZM87.9664 61.4215L71.7866 72.3009V50.5421L87.9664 61.4215Z" fill="#2137FC"/>
<path d="M68.2216 90.7795C68.2216 91.7506 69.0196 92.5374 70.004 92.5374H112.256C113.241 92.5374 114.039 91.7506 114.039 90.7795V83.2034C114.039 82.2324 113.241 81.4456 112.256 81.4456H70.004C69.0196 81.4456 68.2216 82.2324 68.2216 83.2034V90.7795ZM71.7864 84.9612H110.474V89.0217H71.7864V84.9612Z" fill="#2137FC"/>
<path d="M70.004 107.69H86.8088C87.7931 107.69 88.5912 106.903 88.5912 105.932C88.5912 104.961 87.7931 104.174 86.8088 104.174H70.004C69.0196 104.174 68.2216 104.961 68.2216 105.932C68.2216 106.903 69.0196 107.69 70.004 107.69Z" fill="#2137FC"/>
<path d="M70.004 100.114H96.4117C97.3961 100.114 98.1942 99.3268 98.1942 98.3557C98.1942 97.3847 97.3961 96.5979 96.4117 96.5979H70.004C69.0196 96.5979 68.2216 97.3847 68.2216 98.3557C68.2216 99.3268 69.0196 100.114 70.004 100.114Z" fill="#2137FC"/>
</g>
<defs>
<clipPath id="clip0">
<rect width="121.68" height="120" fill="white" transform="translate(0.0413818)"/>
</clipPath>
</defs>
</svg>
