<svg width="659" height="562" viewBox="0 0 659 562" fill="none" xmlns="http://www.w3.org/2000/svg">
<path d="M14.8 281.4C14.8 254.2 21.0667 229.8 33.6 208.2C46.4 186.6 63.6 169.8 85.2 157.8C107.067 145.533 130.933 139.4 156.8 139.4C186.4 139.4 212.667 146.733 235.6 161.4C258.8 175.8 275.6 196.333 286 223H231.2C224 208.333 214 197.4 201.2 190.2C188.4 183 173.6 179.4 156.8 179.4C138.4 179.4 122 183.533 107.6 191.8C93.2 200.067 81.8667 211.933 73.6 227.4C65.6 242.867 61.6 260.867 61.6 281.4C61.6 301.933 65.6 319.933 73.6 335.4C81.8667 350.867 93.2 362.867 107.6 371.4C122 379.667 138.4 383.8 156.8 383.8C173.6 383.8 188.4 380.2 201.2 373C214 365.8 224 354.867 231.2 340.2H286C275.6 366.867 258.8 387.4 235.6 401.8C212.667 416.2 186.4 423.4 156.8 423.4C130.667 423.4 106.8 417.4 85.2 405.4C63.6 393.133 46.4 376.2 33.6 354.6C21.0667 333 14.8 308.6 14.8 281.4ZM483.775 421L419.775 309.8H384.975V421H339.375V143H435.375C456.708 143 474.708 146.733 489.375 154.2C504.308 161.667 515.375 171.667 522.575 184.2C530.042 196.733 533.775 210.733 533.775 226.2C533.775 244.333 528.442 260.867 517.775 275.8C507.375 290.467 491.242 300.467 469.375 305.8L538.175 421H483.775ZM384.975 273.4H435.375C452.442 273.4 465.242 269.133 473.775 260.6C482.575 252.067 486.975 240.6 486.975 226.2C486.975 211.8 482.708 200.6 474.175 192.6C465.642 184.333 452.708 180.2 435.375 180.2H384.975V273.4ZM610.509 423.8C602.243 423.8 595.309 421 589.709 415.4C584.109 409.8 581.309 402.867 581.309 394.6C581.309 386.333 584.109 379.4 589.709 373.8C595.309 368.2 602.243 365.4 610.509 365.4C618.509 365.4 625.309 368.2 630.909 373.8C636.509 379.4 639.309 386.333 639.309 394.6C639.309 402.867 636.509 409.8 630.909 415.4C625.309 421 618.509 423.8 610.509 423.8Z" fill="black"/>
</svg>
